<?xml version="1.0" standalone="no"?>
<!DOCTYPE svg PUBLIC "-//W3C//DTD SVG 1.1//EN" http://www.w3.org/Graphics/SVG/1.1/DTD/svg11.dtd >
<svg xmlns="http://www.w3.org/2000/svg" xmlns:xlink="http://www.w3.org/1999/xlink" version="1.1">
<metadata></metadata>
<defs>
<font id="madras_regularregular" horiz-adv-x="1291" >
<font-face units-per-em="2048" ascent="1628" descent="-420" />
<missing-glyph horiz-adv-x="488" />
<glyph unicode="fi" horiz-adv-x="1083" d="M344 960l-1 -960h-163v960h-169v135h169v169c0 178 112 292 290 292c43 0 86 -4 157 -24l-31 -148c-48 11 -81 15 -110 15c-99 0 -145 -64 -144 -149l1 -155h601v-1095h-162v960h-438zM743 1400c0 68 59 123 121 123s121 -55 121 -123c0 -67 -59 -122 -121 -122 s-121 55 -121 122z" />
<glyph unicode="fl" horiz-adv-x="1157" d="M343 1169v-74h228v-135h-228v-960h-164v960h-169v135h169v68c0 245 127 393 377 393c266 0 386 -122 386 -393v-905c0 -79 24 -121 111 -121c28 0 55 4 83 8c1 0 2 0 22 -138c-38 -13 -78 -21 -117 -21c-192 0 -262 79 -262 263v913c0 171 -50 249 -225 249 c-153 0 -211 -103 -211 -242z" />
<glyph unicode="ff" horiz-adv-x="1192" d="M925 1252v-3v-154h229v-134h-228v-961h-164v960h-418v-960h-164v960h-169v135h169v168c0 179 112 293 291 293c43 0 86 -4 157 -25l-31 -147c-49 11 -81 15 -110 15c-98 0 -144 -63 -144 -147v-3v-154h419v168c0 179 112 293 291 293c43 0 86 -4 157 -25l-31 -147 c-49 11 -81 15 -110 15c-98 0 -144 -63 -144 -147z" />
<glyph unicode="ffi" horiz-adv-x="1683" d="M944 960v-960h-164v960h-437v-960h-163v960h-169v135h169v131c0 179 112 293 290 293c43 0 86 -4 157 -25l-31 -147c-48 11 -81 15 -110 15c-97 0 -143 -63 -143 -145v-5v-117h437v168c0 179 112 293 290 293c43 0 86 -4 157 -25l-31 -147c-48 11 -81 15 -110 15 c-97 0 -143 -63 -143 -145v-5v-154h601v-1095h-162v960h-438zM1466 1277c-62 0 -121 55 -121 123s59 123 121 123s121 -55 121 -123s-59 -123 -121 -123z" />
<glyph unicode="ffl" horiz-adv-x="1740" d="M1741 7c-38 -13 -78 -21 -118 -21c-191 0 -261 79 -261 263v913c0 171 -51 249 -225 249c-154 0 -212 -106 -212 -246v-70h228v-135h-229v-960h-162v960h-419v-960h-163v960h-169v135h169v168c0 179 112 293 290 293c43 0 86 -4 157 -25l-31 -147c-48 11 -81 15 -110 15 c-98 0 -144 -63 -144 -147v-157h420v68c0 245 127 393 376 393c267 0 386 -122 386 -393v-905c0 -79 25 -121 111 -121c28 0 55 4 83 8c1 0 2 0 23 -138z" />
<glyph unicode="ft" horiz-adv-x="1218" d="M1191 960h-246v-692c0 -76 19 -131 128 -131c28 0 47 4 83 8l19 -138c-35 -12 -75 -21 -118 -21c-237 0 -278 121 -278 263v711h-435v-960h-163v960h-169v135h169v168c0 179 112 293 290 293c43 0 86 -4 157 -25l-31 -147c-48 11 -81 15 -110 15 c-99 0 -145 -65 -144 -150l1 -154h435v215l166 60v-275h246v-135z" />
<glyph unicode=" " horiz-adv-x="488" />
<glyph unicode="&#x09;" horiz-adv-x="488" />
<glyph unicode="&#xa0;" horiz-adv-x="488" />
<glyph unicode="!" horiz-adv-x="565" d="M358 429h-151l-10 209v866h171v-866zM135 121c0 -81 66 -147 147 -147s147 66 147 147s-66 147 -147 147s-147 -66 -147 -147z" />
<glyph unicode="&#x22;" horiz-adv-x="902" d="M373 1505l-42 -683h-129l-43 683h214zM743 1505l-42 -683h-129l-43 683h214z" />
<glyph unicode="#" horiz-adv-x="1400" d="M1281 379h-248v-379h-161v379h-343v-379h-162v379h-248v150h248v458h-248v151h248v367h162v-367h343v367h161v-367h248v-151h-248v-458h248v-150zM872 529v458h-343v-458h343z" />
<glyph unicode="$" horiz-adv-x="1186" d="M671 -23v-204h-165v204c-155 19 -312 92 -411 247l133 87c99 -139 238 -186 372 -186c179 0 291 107 291 279c0 377 -737 153 -737 698c0 232 138 387 352 417v205h165v-208c115 -19 248 -80 338 -222l-124 -89c-96 139 -228 165 -309 165c-145 0 -251 -105 -251 -274 c0 -373 736 -133 736 -686c0 -258 -160 -405 -390 -433z" />
<glyph unicode="%" horiz-adv-x="1944" d="M1502 768c-109 0 -181 -138 -181 -334c0 -195 69 -331 181 -331c110 0 177 140 177 333c0 200 -67 332 -177 332zM1498 -28c-237 0 -326 242 -326 462c0 226 89 464 331 464s326 -236 326 -458c0 -228 -85 -468 -331 -468zM446 1391c-110 0 -182 -139 -182 -335 c0 -195 69 -330 182 -330c109 0 176 140 176 332c0 201 -67 333 -176 333zM442 595c-238 0 -327 241 -327 461c0 226 89 465 332 465c241 0 325 -236 325 -459c0 -228 -85 -467 -330 -467zM1268 1503h152l-731 -1503h-151z" />
<glyph unicode="&#x26;" horiz-adv-x="1369" d="M988 1318l-123 -87c-69 112 -164 133 -236 133c-97 0 -164 -55 -164 -159c0 -109 65 -190 136 -283l356 -467c39 102 61 214 74 312l157 -44c-20 -141 -57 -288 -120 -414l236 -309h-211c-41 53 -82 106 -123 160c-97 -113 -231 -187 -414 -187c-247 0 -439 148 -439 406 c0 218 166 352 336 455c-87 132 -167 215 -167 382c0 193 167 306 347 306c111 0 267 -49 355 -204zM870 291c-109 144 -218 288 -328 432c-129 -75 -255 -188 -255 -350c0 -139 135 -248 268 -248c142 0 243 68 315 166z" />
<glyph unicode="&#x2019;" horiz-adv-x="509" d="M394 1505l-112 -583h-137l17 583h232z" />
<glyph unicode="(" horiz-adv-x="632" d="M121 588c0 339 155 705 338 947l80 -87c-149 -241 -254 -555 -254 -850c0 -288 114 -582 247 -810l-81 -87c-172 252 -330 534 -330 887z" />
<glyph unicode=")" horiz-adv-x="632" d="M511 608c0 -353 -157 -655 -329 -907l-81 87c132 228 246 512 246 800c0 295 -105 619 -254 860l81 87c182 -242 337 -588 337 -927z" />
<glyph unicode="*" horiz-adv-x="694" d="M638 1225l-251 19l153 -252l-86 -48l-113 261l-114 -262l-86 50l154 251l-250 -19v93l251 -16l-156 248l85 50l116 -263l113 260l86 -49l-152 -245l250 15v-93z" />
<glyph unicode="+" horiz-adv-x="1144" d="M1039 632h-392v-434h-139v434h-403v133h403v429h139v-429h392v-133z" />
<glyph unicode="," horiz-adv-x="481" d="M360 245l-138 -483h-107l23 483h222z" />
<glyph unicode="-" horiz-adv-x="655" d="M558 653h-461v155h461v-155z" />
<glyph unicode="." horiz-adv-x="508" d="M107 121c0 81 66 147 147 147s147 -66 147 -147s-66 -147 -147 -147s-147 66 -147 147z" />
<glyph unicode="/" horiz-adv-x="824" d="M777 1610l-578 -1781h-152l580 1781h150z" />
<glyph unicode="0" horiz-adv-x="1188" d="M596 1375c-251 0 -339 -294 -339 -646c0 -333 86 -611 341 -611c237 0 334 309 334 622c0 331 -100 635 -336 635zM595 -29c-441 0 -503 482 -503 778c0 295 76 771 507 771c412 0 497 -474 497 -784c0 -285 -85 -765 -501 -765z" />
<glyph unicode="1" horiz-adv-x="996" d="M117 0v150h327v1179l-325 -117l-38 148l402 144h121v-1354h304v-150h-791z" />
<glyph unicode="2" horiz-adv-x="1150" d="M879 1090c0 167 -119 279 -296 279c-123 0 -245 -35 -336 -172l-120 87c110 180 285 237 452 237c268 0 459 -165 459 -431c1 -432 -739 -509 -765 -940h751v-150h-920v79c0 604 775 697 775 1011z" />
<glyph unicode="3" horiz-adv-x="1147" d="M897 441c0 197 -132 286 -319 286h-143v145h146c183 0 246 97 246 247c0 124 -101 250 -283 250c-115 0 -231 -35 -320 -172l-113 87c104 179 284 237 428 237c227 0 448 -141 448 -400c0 -141 -60 -247 -155 -315c121 -52 226 -159 226 -366c0 -335 -250 -469 -536 -469 c-171 0 -341 70 -439 253l111 87c83 -139 211 -188 338 -188c229 0 365 123 365 318z" />
<glyph unicode="4" horiz-adv-x="1226" d="M770 490v711s-205 -276 -275 -369s-262 -342 -262 -342h537zM1142 345h-213v-345h-159v345h-736v117l769 1032h126v-1004h213v-145z" />
<glyph unicode="5" horiz-adv-x="1193" d="M912 468c0 177 -133 326 -314 326c-92 0 -182 -16 -305 -126l-125 47l49 780h778v-149h-634l-33 -490c3 -1 5 -1 7 -2c74 57 171 87 263 87c265 0 474 -206 474 -472c0 -274 -202 -497 -481 -497c-188 0 -383 89 -480 255l122 88c77 -120 221 -193 363 -193 c186 0 316 169 316 346z" />
<glyph unicode="6" horiz-adv-x="1178" d="M934 462c0 203 -118 324 -328 324c-135 0 -220 -66 -261 -129c-31 -48 -60 -106 -60 -185c0 -197 125 -348 329 -348c187 0 320 128 320 338zM1095 471c0 -311 -219 -497 -495 -497c-352 0 -493 329 -493 644v22c0 386 65 881 544 881c138 0 274 -46 366 -185l-120 -82 c-72 92 -187 116 -251 116c-292 0 -381 -332 -381 -628c2 0 5 -1 6 -1c95 122 208 198 363 198c284 0 461 -186 461 -468z" />
<glyph unicode="7" horiz-adv-x="1058" d="M450 0h-158c0 571 352 1123 512 1346h-733v146h921v-126c-59 -92 -542 -697 -542 -1366z" />
<glyph unicode="8" horiz-adv-x="1254" d="M1149 414c0 -278 -205 -443 -520 -443c-316 0 -523 163 -523 439c0 184 113 322 288 384c-127 53 -227 173 -227 323c0 225 166 399 462 399s460 -169 460 -395c0 -149 -96 -260 -227 -320c174 -62 287 -202 287 -387zM926 1123c0 117 -75 251 -297 251 c-223 0 -298 -142 -298 -256c0 -138 108 -259 298 -259c185 0 297 132 297 264zM987 410c0 161 -128 308 -360 308s-357 -138 -357 -304c0 -165 115 -296 359 -296s358 123 358 292z" />
<glyph unicode="9" horiz-adv-x="1178" d="M243 1033c0 -203 118 -323 329 -323c134 0 220 65 261 129c31 48 60 105 60 184c0 197 -125 348 -329 348c-187 0 -321 -128 -321 -338zM83 1025c0 311 218 496 494 496c353 0 493 -328 493 -643v-23c0 -387 -65 -880 -543 -880c-138 0 -274 45 -366 184l119 83 c73 -93 188 -116 251 -116c293 0 382 332 382 628c-96 -124 -213 -197 -369 -197c-284 0 -461 186 -461 468z" />
<glyph unicode=":" horiz-adv-x="508" d="M107 963c0 81 66 147 147 147s147 -66 147 -147s-66 -147 -147 -147s-147 66 -147 147zM107 121c0 81 66 147 147 147s147 -66 147 -147s-66 -147 -147 -147s-147 66 -147 147z" />
<glyph unicode=";" horiz-adv-x="502" d="M244 -208l128 453h-242l-23 -453h137zM101 963c0 82 66 147 147 147s147 -65 147 -147c0 -81 -66 -147 -147 -147s-147 66 -147 147z" />
<glyph unicode="&#x3c;" horiz-adv-x="803" d="M670 83l-561 534v140l561 532v-200l-437 -401l437 -401v-204z" />
<glyph unicode="=" horiz-adv-x="1159" d="M1004 407h-849v139h849v-139zM1004 844h-849v141h849v-141z" />
<glyph unicode="&#x3e;" horiz-adv-x="803" d="M694 617l-561 -534v204l437 401l-437 401v200l561 -532v-140z" />
<glyph unicode="?" horiz-adv-x="949" d="M651 1186c0 94 -58 185 -204 185c-72 0 -172 -26 -241 -138l-123 87c88 155 242 204 353 204c274 0 384 -160 384 -339c0 -269 -282 -385 -306 -602c-7 -61 -6 -126 -6 -154h-169v133c0 276 312 432 312 624zM282 121c0 -81 66 -147 147 -147s147 66 147 147 s-66 147 -147 147s-147 -66 -147 -147z" />
<glyph unicode="@" horiz-adv-x="1669" d="M1005 778h-41c-126 0 -355 -13 -355 -183c0 -96 63 -154 160 -154c108 0 190 82 236 171v166zM1013 476h-3c-64 -94 -147 -147 -264 -147c-155 0 -262 112 -262 264c0 275 312 291 520 291c2 154 -15 215 -181 215c-78 0 -149 -28 -212 -73l-59 87c64 61 176 101 264 101 c285 0 313 -141 313 -388v-282c0 -75 41 -111 112 -111c156 0 197 200 197 320c0 389 -201 660 -614 660c-390 0 -593 -296 -593 -660c0 -381 181 -667 595 -667c90 0 208 19 282 73l71 -85c-92 -84 -227 -102 -347 -102c-483 0 -723 307 -723 768c0 435 258 782 715 782 c464 0 736 -314 736 -766c0 -190 -101 -419 -320 -419c-110 0 -186 35 -227 139z" />
<glyph unicode="A" d="M897 557l-256 705l-258 -705h514zM1284 0h-184l-146 402h-624l-149 -402h-172l549 1504h176z" />
<glyph unicode="B" horiz-adv-x="1288" d="M738 702h-402v-543h376c215 0 320 66 320 279c0 171 -95 264 -294 264zM647 1345h-311v-488h353c160 0 238 94 238 238c0 153 -89 250 -280 250zM707 0h-537v1504h476c254 0 451 -114 451 -402c0 -153 -62 -249 -153 -313c148 -30 258 -147 258 -346 c0 -335 -180 -443 -495 -443z" />
<glyph unicode="C" horiz-adv-x="1273" d="M701 137c130 0 269 51 365 201l130 -93c-114 -197 -307 -271 -479 -271c-420 0 -611 376 -611 769c0 415 187 781 603 781c142 0 337 -62 457 -255l-130 -94c-102 147 -232 185 -332 185c-267 0 -420 -270 -420 -615c0 -337 170 -608 417 -608z" />
<glyph unicode="D" horiz-adv-x="1376" d="M502 1344h-161v-1184h249c242 0 531 190 530 562c-1 394 -220 622 -618 622zM170 0v1504h324c475 0 799 -204 799 -765c0 -428 -261 -719 -662 -739c-29 -1 -461 0 -461 0z" />
<glyph unicode="E" horiz-adv-x="1180" d="M1085 0h-915v1505h915l-9 -160h-736v-506h646l-10 -152h-636v-527h754z" />
<glyph unicode="F" horiz-adv-x="1114" d="M1052 1343h-710v-510l648 1l-9 -155h-639v-679h-172v1504h891z" />
<glyph unicode="G" horiz-adv-x="1373" d="M109 753c0 366 155 770 623 770c173 0 364 -75 479 -271l-130 -94c-96 150 -235 201 -364 201c-322 0 -431 -321 -431 -606c0 -344 122 -618 427 -618c188 0 306 105 376 257v186h-319v164h479l1 -741h-125l-20 180c-92 -137 -229 -209 -390 -209 c-443 0 -606 356 -606 781z" />
<glyph unicode="H" horiz-adv-x="1343" d="M1173 0h-170v687h-662v-687h-171v1504h171v-655h662v655h170v-1504z" />
<glyph unicode="I" horiz-adv-x="515" d="M345 0h-175v1504h175v-1504z" />
<glyph unicode="J" horiz-adv-x="861" d="M241 -27c-69 0 -139 4 -243 31l33 148c66 -14 123 -24 174 -24c261 0 330 134 330 382v993h174l1 -1026c0 -336 -130 -504 -469 -504z" />
<glyph unicode="K" horiz-adv-x="1231" d="M1230 0h-212l-500 769l-178 -193l-1 -576h-169v1504h169v-703c45 54 124 142 141 161l221 245l268 297l216 1l-547 -609z" />
<glyph unicode="L" horiz-adv-x="1085" d="M1046 0h-876v1504h176v-1339h709z" />
<glyph unicode="M" horiz-adv-x="1606" d="M1436 0h-170v1166l-18 -49l-387 -812h-114l-385 812l-22 49v-1166h-170v1504h189l446 -937l439 937h192v-1504z" />
<glyph unicode="N" horiz-adv-x="1370" d="M1035 316c-4 116 -4 163 -4 1188h169v-1504h-165s-663 1117 -697 1186l-3 -2c3 -99 5 -185 5 -300v-884h-170v1504h162s558 -928 588 -978c74 -123 81 -139 115 -210z" />
<glyph unicode="O" horiz-adv-x="1380" d="M107 758c0 380 188 766 583 766c386 0 583 -364 583 -766c0 -325 -124 -784 -582 -784c-443 0 -584 425 -584 784zM286 755c0 -232 80 -617 405 -617c346 0 404 430 404 617c0 217 -93 610 -405 610c-322 0 -404 -412 -404 -610z" />
<glyph unicode="P" horiz-adv-x="1173" d="M595 1347h-255v-589h266c159 0 306 89 306 279c0 217 -115 310 -317 310zM1082 1046c0 -287 -193 -445 -474 -445h-268v-601h-170v1504h397c304 0 515 -115 515 -458z" />
<glyph unicode="Q" horiz-adv-x="1380" d="M107 758c0 380 188 766 583 766c386 0 583 -364 583 -766c0 -193 -44 -434 -176 -597l151 -254l-125 -91l-142 239c-77 -51 -173 -81 -290 -81c-452 0 -584 425 -584 784zM286 755c0 -232 80 -617 405 -617c83 0 149 25 202 65l-166 279l124 92l147 -246 c78 139 97 321 97 427c0 217 -93 610 -405 610c-322 0 -404 -412 -404 -610z" />
<glyph unicode="R" horiz-adv-x="1231" d="M1012 0l-381 621h-291v-621h-170v1504h427c304 0 515 -119 515 -448c0 -210 -117 -357 -302 -411l409 -645h-207zM625 1345h-285v-567h296c159 0 306 92 306 269c0 197 -115 298 -317 298z" />
<glyph unicode="S" horiz-adv-x="1093" d="M1020 413c0 -287 -199 -437 -474 -437c-178 0 -375 70 -492 251l133 87c99 -138 238 -185 372 -185c179 0 291 107 291 278c0 376 -737 153 -737 696c0 259 171 421 428 421c128 0 312 -49 427 -229l-124 -89c-96 139 -228 165 -309 165c-145 0 -251 -105 -251 -274 c0 -372 736 -132 736 -684z" />
<glyph unicode="T" horiz-adv-x="1031" d="M1003 1345h-396v-1345h-175v1345h-404v159h975v-159z" />
<glyph unicode="U" horiz-adv-x="1328" d="M1178 1504v-961c0 -281 -112 -571 -519 -571c-408 0 -509 292 -509 572v960h172v-962c0 -203 65 -412 337 -412c300 0 350 210 350 414l1 960h168z" />
<glyph unicode="V" horiz-adv-x="1191" d="M1013 1505h174l-500 -1505h-178l-504 1505h184l413 -1262z" />
<glyph unicode="W" horiz-adv-x="1696" d="M1688 1505l-386 -1505h-203l-240 1109l-13 80l-14 -79l-248 -1110h-196l-381 1505h181l289 -1171l19 -85l15 86l246 1170h186l252 -1158l13 -75l16 75l297 1158h167z" />
<glyph unicode="X" horiz-adv-x="1165" d="M1165 0h-207l-374 664l-375 -664h-207l484 807l-449 697h213l332 -551l329 551h205l-440 -684z" />
<glyph unicode="Y" horiz-adv-x="1159" d="M208 1504l376 -729l379 729h186l-484 -910v-594h-169v592l-486 912h198z" />
<glyph unicode="Z" horiz-adv-x="1198" d="M1099 1504v-149s-777 -1180 -792 -1197c22 2 101 2 132 2h678l-9 -160h-1012v148l795 1200c-13 -1 -67 -2 -142 -2h-619l11 158h958z" />
<glyph unicode="[" horiz-adv-x="727" d="M606 -276h-421v1780h421v-135h-265v-1509h265v-136z" />
<glyph unicode="\" horiz-adv-x="824" d="M625 -171l-578 1781h150l580 -1781h-152z" />\A<glyph unicode="]" horiz-adv-x="727" d="M542 -276h-421v136h265v1509h-265v135h421v-1780z" />\A<glyph unicode="^" horiz-adv-x="1144" d="M89 862l424 641h120l422 -641h-190l-295 491l-292 -491h-189z" />\A<glyph unicode="_" horiz-adv-x="1003" d="M1008 -169v-144h-1013v144h1013z" />\A<glyph unicode="&#x2018;" horiz-adv-x="509" d="M115 922l112 583h137l-17 -583h-232z" />\A<glyph unicode="a" horiz-adv-x="1033" d="M732 684c1 175 -31 279 -229 279c-103 0 -184 -39 -267 -98l-79 118c87 86 217 128 337 128c369 0 395 -241 395 -545v-370c0 -37 6 -78 53 -78h57v-119c-36 -9 -73 -18 -111 -18c-102 0 -145 89 -145 180h-4c-81 -121 -186 -184 -333 -184c-196 0 -332 139 -332 334 c0 353 395 374 658 373zM681 548c-159 0 -449 -16 -449 -235c0 -124 80 -193 202 -193c137 0 241 101 299 215v213h-52z" />\A<glyph unicode="b" horiz-adv-x="1168" d="M619 128c235 0 297 292 297 417c0 252 -109 414 -297 414c-109 0 -245 -54 -320 -217v-376c18 -45 42 -84 72 -119c50 -60 131 -119 248 -119zM298 1555v-635c76 125 187 191 336 191c313 0 449 -274 449 -574c0 -203 -88 -560 -449 -560c-145 0 -270 69 -342 194 l-18 -171h-135v1495z" />\A<glyph unicode="c" horiz-adv-x="990" d="M253 536c0 -229 117 -406 302 -406c88 0 181 35 248 148l124 -87c-85 -156 -236 -214 -364 -214c-336 0 -479 254 -479 558c0 301 131 576 479 576c111 0 266 -50 354 -205l-123 -87c-69 112 -169 140 -241 140c-192 0 -300 -186 -300 -423z" />\A<glyph unicode="d" horiz-adv-x="1169" d="M539 1111c190 0 287 -97 335 -192v576l159 60v-1555h-134l-18 177c-71 -124 -212 -200 -355 -200c-363 0 -443 346 -443 531c0 301 143 603 456 603zM563 126c111 0 189 57 239 117c29 35 53 74 72 119v380c-75 163 -211 217 -307 217c-205 0 -310 -181 -310 -433 c0 -169 71 -400 306 -400z" />\A<glyph unicode="e" horiz-adv-x="1062" d="M977 503h-728c0 -226 99 -379 299 -379c127 0 214 52 282 165l124 -87c-88 -156 -205 -225 -426 -225c-313 0 -443 278 -443 538c0 356 165 596 472 596c309 0 422 -277 422 -552c0 -16 -1 -43 -2 -56zM259 637h554c0 156 -76 323 -273 323c-190 0 -281 -184 -281 -323z " />\A<glyph unicode="f" horiz-adv-x="609" d="M627 1531l-31 -147c-48 11 -81 15 -110 15c-99 0 -143 -65 -143 -150v-154h228v-135h-228v-960h-163v960h-169v135h169v168c0 179 112 293 290 293c43 0 86 -4 157 -25z" />\A<glyph unicode="g" horiz-adv-x="1162" d="M83 511c0 299 142 600 454 600c190 0 287 -95 335 -190l18 174h140v-909c0 -322 -60 -613 -452 -613c-245 0 -359 95 -424 172l102 98c36 -37 131 -122 303 -122c255 0 318 192 318 461c-71 -125 -209 -190 -353 -190c-361 0 -441 334 -441 519zM870 744 c-71 163 -211 219 -306 219c-204 0 -308 -183 -308 -434c0 -163 70 -391 305 -391c112 0 188 59 239 118c29 35 52 74 70 119v369z" />\A<glyph unicode="h" horiz-adv-x="1115" d="M302 0h-163v1495l163 60v-637h6c95 151 209 193 313 193c254 0 364 -159 364 -436v-675h-163v676c0 168 -69 283 -228 283c-95 0 -170 -62 -218 -123c-29 -37 -54 -78 -74 -123v-713z" />\A<glyph unicode="i" horiz-adv-x="485" d="M266 1277c-62 0 -121 55 -121 123s59 123 121 123s121 -55 121 -123s-59 -123 -121 -123zM57 1093h289v-1093h-162v953h-127v140z" />\A<glyph unicode="j" horiz-adv-x="511" d="M291 1277c-61 0 -122 55 -122 123s61 123 122 123c60 0 121 -55 121 -123s-61 -123 -121 -123zM372 -164v1257h-289v-139h127v-1118c0 -62 -10 -120 -107 -120c-29 0 -66 3 -101 7l-20 -129c33 -13 93 -21 136 -21c179 0 254 121 254 263z" />\A<glyph unicode="k" horiz-adv-x="975" d="M788 0l-344 578l-146 -157v-421h-159v1496l159 60v-916l418 455h221l-377 -401l411 -694h-183z" />\A<glyph unicode="l" horiz-adv-x="504" d="M288 1555v-1297c0 -63 12 -121 111 -121c31 0 51 3 86 8l20 -138c-35 -12 -75 -21 -118 -21c-227 0 -261 121 -261 263v1246z" />\A<glyph unicode="m" horiz-adv-x="1765" d="M1472 0v681c0 171 -71 282 -230 282c-94 0 -162 -62 -207 -123c-27 -37 -49 -78 -66 -123l1 -717h-162v681c0 164 -70 282 -225 282c-92 0 -162 -64 -210 -128c-28 -37 -52 -80 -72 -128v-707h-162v1095h139l18 -176h4c59 107 188 192 303 192c144 0 277 -50 325 -210h7 c67 123 195 210 327 210c278 0 373 -158 373 -432v-679h-163z" />\A<glyph unicode="n" horiz-adv-x="1115" d="M302 0h-163v1095h137l18 -177h6c95 151 210 193 322 193c252 0 363 -159 363 -436v-675h-163v676c0 168 -69 283 -228 283c-95 0 -170 -62 -218 -123c-29 -37 -53 -78 -74 -123v-713z" />\A<glyph unicode="o" horiz-adv-x="1098" d="M550 964c-217 0 -303 -232 -303 -419c0 -204 108 -421 302 -421c204 0 302 214 302 419c0 210 -81 421 -301 421zM550 -23c-329 0 -466 298 -466 567c0 242 127 567 466 567c349 0 463 -322 463 -566c0 -276 -139 -568 -463 -568z" />\A<glyph unicode="p" horiz-adv-x="1168" d="M277 1093l18 -183c76 125 199 201 348 201c313 0 440 -274 440 -574c0 -224 -83 -560 -459 -560c-145 0 -254 59 -326 184v-536l-159 -60v1528h138zM607 960c-100 0 -234 -53 -309 -216v-381c18 -45 42 -84 72 -119c50 -61 132 -116 252 -116c235 0 294 293 294 417 c0 251 -122 415 -309 415z" />\A<glyph unicode="q" horiz-adv-x="1161" d="M871 914l18 179h140v-1468l-158 -60v602c-101 -141 -199 -191 -344 -191c-361 0 -444 332 -444 519c0 309 138 616 451 616c149 0 261 -72 337 -197zM555 125c115 0 194 59 244 119c29 35 53 74 71 119v381c-75 164 -208 215 -308 215c-204 0 -309 -184 -309 -436 c0 -171 70 -398 302 -398z" />\A<glyph unicode="r" horiz-adv-x="692" d="M701 1087l-44 -151c-13 5 -57 15 -84 15c-96 0 -165 -62 -210 -123c-27 -37 -49 -78 -67 -123v-705h-162v1093h138l18 -192c56 125 150 211 281 211c64 0 113 -21 130 -25z" />\A<glyph unicode="s" horiz-adv-x="922" d="M838 325c0 -243 -200 -348 -363 -348c-211 0 -321 69 -409 225l124 87c68 -112 159 -168 264 -168c116 0 220 63 220 185c0 232 -566 92 -566 468c0 218 157 337 344 337c110 0 265 -50 353 -204l-123 -87c-69 112 -168 144 -239 144c-83 0 -173 -37 -173 -162 c0 -233 568 -90 568 -477z" />\A<glyph unicode="t" horiz-adv-x="624" d="M185 956h-180v139h180v215l166 60v-275h246v-139h-246v-688c0 -76 19 -131 128 -131c28 0 47 4 83 8l19 -138c-35 -12 -75 -21 -118 -21c-237 0 -278 121 -278 263v707z" />\A<glyph unicode="u" horiz-adv-x="1094" d="M801 1095h162v-1095h-138l-18 184h-5c-95 -175 -200 -203 -312 -203c-239 0 -363 146 -363 407v707h162v-708c0 -149 70 -258 229 -258c96 0 165 61 213 124c28 37 50 79 70 125v717z" />\A<glyph unicode="v" horiz-adv-x="971" d="M562 0h-155l-391 1095h180l289 -880l287 880h181z" />\A<glyph unicode="w" horiz-adv-x="1362" d="M681 825l-201 -825h-168l-286 1095h172l201 -886l202 886h165l205 -881l192 881h175l-285 -1095h-165z" />\A<glyph unicode="x" horiz-adv-x="958" d="M739 0l-267 437l-255 -437h-198l365 577l-346 518h203l236 -394l233 394h192l-336 -525l373 -570h-200z" />\A<glyph unicode="y" horiz-adv-x="956" d="M508 -183c-63 -187 -131 -244 -310 -244c-28 0 -84 10 -112 18l19 156c24 -5 67 -18 92 -18c118 0 129 55 192 223c14 35 16 41 25 65l-399 1078h178l302 -853l266 853h180z" />\A<glyph unicode="z" horiz-adv-x="984" d="M292 159h611v-159h-836v114l607 824h-587v157h800v-138z" />\A<glyph unicode="{"horiz-adv-x:816 d="M715 -276c-313 0 -426 158 -426 447v220c0 119 -29 153 -121 162l-59 6v103l59 6c92 9 121 42 121 162v218c0 289 120 466 426 466v-109c-172 -19 -260 -101 -260 -289v-229c0 -170 -39 -236 -131 -279c92 -43 131 -108 131 -278v-217c0 -189 79 -261 260 -280v-109z" /> <glyph unicode=| horiz-adv-x=607 d="M380 -402h-153v2078h153v-2078z" /> <glyph unicode=}</font>
</defs>
</svg>
